<svg width="795" height="90" xmlns="http://www.w3.org/2000/svg" data-name="Layer 1">

 <g>
  <title>Layer 1</title>
  <polygon id="svg_1" fill="#fff" points="41.5099983215332,76.780029296875 8.279999732971191,1.82000732421875 0,1.82000732421875 38.45000076293945,88.1600341796875 44.56999969482422,88.1600341796875 83.0199966430664,1.82000732421875 74.73999786376953,1.82000732421875 41.5099983215332,76.780029296875 " class="cls-1"/>
  <rect id="svg_2" fill="#fff" height="63.28" width="7.13" y="24.88001" x="104.14" class="cls-1"/>
  <rect id="svg_3" fill="#fff" height="17.29" width="7.13" y="1.82001" x="104.14" class="cls-1"/>
  <path id="svg_4" fill="#fff" d="m183.91,52.21001l36,0c-1.19,22.56 -19.26,30.64 -36,30.64c-19,0 -38.09,-11.71 -38.09,-37.86s19.51,-37.86 37.51,-37.86c25.22,0 31.66,11.77 34.63,23.29l0.47,1.82l7.09,0l-0.55,-2.88c-3.64,-19.48 -17.64,-29.36 -41.64,-29.36c-26.29,0 -44.64,18.5 -44.64,45s18.35,45 44.64,45c16.36,0 29.21,-5.79 36.6,-16.39l0,14.55l7.14,0l0,-43.1l-43.2,0l0.04,7.15z" class="cls-1"/>
  <path id="svg_5" fill="#fff" d="m287.74,1.82001l-39.66,86.34l8.31,0l12.22,-26.93l44.34,0l12.21,26.93l8.31,0l-39.65,-86.34l-6.08,0zm22,52.27l-37.9,0l18.94,-41.69l18.96,41.69z" class="cls-1"/>
  <polygon id="svg_6" fill="#fff" points="361.57000732421875,1.82000732421875 354.44000244140625,1.82000732421875 354.44000244140625,88.1600341796875 416.4599914550781,88.1600341796875 416.4599914550781,81.02001953125 361.57000732421875,81.02001953125 361.57000732421875,1.82000732421875 " class="cls-1"/>
  <polygon id="svg_7" fill="#fff" points="445.69000244140625,1.82000732421875 438.54998779296875,1.82000732421875 438.54998779296875,88.1600341796875 500.5799865722656,88.1600341796875 500.5799865722656,81.02001953125 445.69000244140625,81.02001953125 445.69000244140625,1.82000732421875 " class="cls-1"/>
  <polygon id="svg_8" fill="#fff" points="529.8099975585938,46.85003662109375 588.3499755859375,46.85003662109375 588.3499755859375,39.71002197265625 529.8099975585938,39.71002197265625 529.8099975585938,8.96002197265625 590.97998046875,8.96002197265625 590.97998046875,1.82000732421875 522.6699829101562,1.82000732421875 522.6699829101562,88.1600341796875 591.6599731445312,88.1600341796875 591.6599731445312,81.02001953125 529.8099975585938,81.02001953125 529.8099975585938,46.85003662109375 " class="cls-1"/>
  <path id="svg_9" fill="#fff" d="m688.1,63.25001c0,-8.92 -3.31,-14.85 -9.85,-17.64a21.6,21.6 0 0 0 11.33,-19.11c0,-16.6 -8.14,-24.68 -24.9,-24.68l-47.28,0l0,86.34l7.14,0l0,-38.34l35.23,0c19.19,0 21.2,4.75 21.2,15.6c0,0.7 0,17.27 2.08,21.4l0.67,1.34l7.66,0l-1.69,-3.48c-1.02,-2.12 -1.59,-14.01 -1.59,-21.43zm-5.65,-36.75c0,7.47 -5.64,16.18 -21.54,16.18l-36.37,0l0,-33.72l39.91,0c11.11,0 18,2.94 18,17.54z" class="cls-1"/>
  <polygon id="svg_10" fill="#fff" points="785.6500244140625,1.82000732421875 750.510009765625,45.030029296875 715.3800048828125,1.82000732421875 705.7999877929688,1.82000732421875 746.9400024414062,52.25 746.9400024414062,88.1600341796875 754.0800170898438,88.1600341796875 754.0800170898438,52.25 795.22998046875,1.82000732421875 785.6500244140625,1.82000732421875 " class="cls-1"/>
 </g>
</svg>